<?xml version="1.0" standalone="no"?>
<!DOCTYPE svg PUBLIC "-//W3C//DTD SVG 20010904//EN"
 "http://www.w3.org/TR/2001/REC-SVG-20010904/DTD/svg10.dtd">
<svg version="1.0" xmlns="http://www.w3.org/2000/svg"
 width="878.000000pt" height="720.000000pt" viewBox="0 0 878.000000 720.000000"
 preserveAspectRatio="xMidYMid meet">

<g transform="translate(0.000000,720.000000) scale(0.100000,-0.100000)"
fill="#DE6349 !important" stroke="none">
<path d="M3515 4786 c-77 -29 -304 -119 -503 -200 -200 -80 -370 -146 -378
-146 -8 0 -14 8 -14 18 0 27 -50 97 -90 127 -138 102 -373 47 -449 -104 -10
-20 -28 -67 -41 -106 -41 -127 -84 -185 -156 -212 -40 -15 -506 -176 -747
-258 -109 -37 -196 -69 -194 -71 2 -2 37 7 77 21 80 27 94 30 85 16 -3 -5 -2
-61 1 -125 7 -107 9 -116 27 -116 11 0 18 -3 14 -6 -3 -3 -51 2 -107 11 -56 9
-104 14 -107 11 -4 -3 -1 -6 7 -6 7 0 128 -21 269 -46 453 -81 463 -83 487
-74 17 7 26 5 31 -5 7 -12 138 -45 179 -45 7 0 14 32 19 83 l7 82 36 17 c111
50 135 59 162 61 22 1 30 7 32 22 2 35 16 -147 17 -231 l1 -82 88 -16 c48 -9
90 -16 94 -16 4 0 9 102 10 228 l3 227 70 36 c39 20 94 42 123 49 34 9 53 19
54 29 5 48 16 -214 17 -400 l1 -217 68 -12 c37 -6 75 -14 85 -17 16 -4 17 14
17 285 0 349 7 475 27 468 7 -3 13 -2 13 3 0 12 100 52 113 44 6 -3 7 -1 3 5
-7 11 7 16 41 15 7 -1 11 3 8 7 -3 4 2 11 11 14 23 9 31 7 15 -3 -10 -7 -7 -9
12 -8 28 2 36 12 15 19 -7 3 -6 7 5 11 16 6 17 -25 17 -453 0 -253 3 -460 8
-460 4 0 133 -22 287 -49 424 -74 396 -71 425 -55 18 11 20 13 5 9 -20 -5 -20
1 -24 649 -3 455 -1 655 7 660 6 3 33 11 61 16 39 7 58 6 87 -6 20 -9 152 -35
293 -59 141 -24 316 -56 390 -70 73 -14 148 -25 165 -25 26 1 23 3 -24 19 -30
10 -86 24 -125 31 -38 7 -191 37 -340 67 -148 30 -299 58 -335 63 -36 4 -90
16 -120 27 l-55 20 -5 132 c-6 156 -10 163 -87 134 -7 -3 -13 0 -13 6 0 19
-32 12 -175 -43z m-1097 -350 c32 -30 37 -40 37 -79 0 -56 -28 -96 -80 -116
-32 -13 -43 -13 -78 0 -54 19 -82 58 -82 116 0 39 5 49 37 79 31 28 45 34 83
34 38 0 52 -6 83 -34z m-1221 -822 c-3 -3 -12 -4 -19 -1 -8 3 -5 6 6 6 11 1
17 -2 13 -5z"/>
<path d="M5044 4651 c3 -5 3 -22 0 -39 -5 -23 -10 -28 -25 -25 -16 4 -19 0
-19 -26 0 -17 -4 -31 -10 -31 -5 0 -10 -11 -10 -25 0 -16 -6 -25 -15 -25 -8 0
-15 -8 -15 -17 0 -10 -7 -36 -14 -58 -13 -36 -14 -37 -19 -15 -4 24 -4 23 -6
-4 -1 -21 -5 -27 -17 -22 -11 4 -18 -1 -21 -14 -3 -11 -14 -21 -27 -21 -29 -2
142 -22 457 -55 147 -15 269 -25 272 -23 10 10 -8 79 -21 79 -7 0 -14 10 -16
23 -2 14 -9 21 -21 21 -11 -1 -17 6 -18 20 -1 17 -2 17 -6 4 -11 -43 -33 -4
-33 60 0 25 -4 32 -19 32 -16 0 -21 10 -26 55 -6 45 -11 56 -29 60 -89 20
-277 45 -301 41 -22 -4 -26 -3 -15 4 12 8 11 10 -8 10 -13 0 -21 -4 -18 -9z
m336 -61 c0 -5 -4 -10 -10 -10 -5 0 -10 5 -10 10 0 6 5 10 10 10 6 0 10 -4 10
-10z"/>
<path d="M5959 4473 c-13 -16 -12 -17 4 -4 9 7 17 15 17 17 0 8 -8 3 -21 -13z"/>
<path d="M5929 4433 c-13 -16 -12 -17 4 -4 16 13 21 21 13 21 -2 0 -10 -8 -17
-17z"/>
<path d="M5839 4318 c-41 -51 -78 -96 -83 -100 -6 -4 -8 -9 -5 -12 3 -3 19 11
35 32 16 20 53 67 83 105 29 37 50 67 48 67 -3 0 -38 -42 -78 -92z"/>
<path d="M4896 4291 c-4 -5 3 -7 14 -4 23 6 26 13 6 13 -8 0 -17 -4 -20 -9z"/>
<path d="M5180 4260 c-9 -6 -10 -10 -3 -10 6 0 15 5 18 10 8 12 4 12 -15 0z"/>
<path d="M5276 4252 c-3 -5 8 -6 25 -4 16 2 29 6 29 8 0 8 -49 4 -54 -4z"/>
<path d="M6049 4243 c-13 -16 -12 -17 4 -4 16 13 21 21 13 21 -2 0 -10 -8 -17
-17z"/>
<path d="M5366 4242 c-2 -4 12 -6 32 -4 56 5 62 10 15 11 -23 1 -44 -3 -47 -7z"/>
<path d="M5298 4233 c7 -3 16 -2 19 1 4 3 -2 6 -13 5 -11 0 -14 -3 -6 -6z"/>
<path d="M5513 4233 c20 -2 35 -8 32 -13 -3 -4 11 -4 30 0 20 4 55 6 78 3 23
-3 39 -3 36 1 -3 3 -53 7 -110 9 -57 2 -87 2 -66 0z"/>
<path d="M6019 4203 c-13 -16 -12 -17 4 -4 16 13 21 21 13 21 -2 0 -10 -8 -17
-17z"/>
<path d="M6354 3743 l-480 -225 4 -29 c2 -16 6 -29 8 -29 3 0 36 16 75 36 39
19 73 33 75 31 3 -2 54 22 114 53 l109 57 4 -91 3 -91 2 110 c2 110 9 135 39
135 7 0 13 -8 13 -17 0 -12 3 -14 8 -6 4 6 127 73 275 148 147 75 267 139 267
141 0 16 -89 -23 -516 -223z"/>
<path d="M5486 3900 c-93 -59 -111 -171 -40 -250 45 -49 81 -64 149 -58 58 5
94 24 128 70 21 29 33 102 23 143 -7 26 -8 25 -56 -38 -51 -68 -58 -72 -156
-83 l-61 -6 -7 71 -7 72 42 50 c23 27 40 52 37 54 -2 3 -26 -9 -52 -25z"/>
<path d="M5379 3903 c-13 -16 -12 -17 4 -4 9 7 17 15 17 17 0 8 -8 3 -21 -13z"/>
<path d="M5276 3735 c-9 -26 -7 -32 5 -12 6 10 9 21 6 23 -2 3 -7 -2 -11 -11z"/>
<path d="M708 3683 c6 -2 18 -2 25 0 6 3 1 5 -13 5 -14 0 -19 -2 -12 -5z"/>
<path d="M768 3673 c6 -2 18 -2 25 0 6 3 1 5 -13 5 -14 0 -19 -2 -12 -5z"/>
<path d="M823 3663 c9 -2 23 -2 30 0 6 3 -1 5 -18 5 -16 0 -22 -2 -12 -5z"/>
<path d="M883 3653 c9 -2 23 -2 30 0 6 3 -1 5 -18 5 -16 0 -22 -2 -12 -5z"/>
<path d="M184 3629 c4 -13 24 -114 47 -224 53 -264 57 -278 74 -271 8 3 17 1
20 -4 3 -5 12 -7 19 -4 8 3 19 -6 26 -23 12 -27 18 -29 234 -71 121 -24 334
-66 473 -94 l252 -51 12 -56 c13 -68 43 -119 76 -132 50 -19 53 -15 53 69 0
42 4 73 8 67 4 -5 14 -11 22 -11 8 -1 53 -9 100 -19 47 -10 97 -20 113 -22 24
-5 27 -10 27 -42 0 -20 3 -52 6 -72 l6 -36 76 -11 c41 -7 77 -11 79 -9 1 2 6
31 9 66 6 50 10 61 23 57 9 -3 69 -15 134 -27 l117 -23 0 -57 c0 -32 4 -60 8
-63 13 -8 75 38 105 78 18 23 33 33 43 29 8 -3 24 3 36 13 12 11 18 14 15 7
-4 -6 -4 -14 1 -17 14 -8 182 -27 182 -19 0 2 -10 8 -22 13 -18 7 -12 8 25 6
41 -4 46 -2 36 11 -8 9 -21 12 -36 8 -14 -3 -23 -1 -23 6 0 6 -7 8 -16 5 -9
-4 -22 -2 -28 3 -16 13 -116 32 -128 25 -6 -4 -13 -2 -17 3 -3 6 -60 20 -126
32 -379 70 -913 172 -1285 247 -467 93 -439 83 -480 170 -11 23 -26 44 -35 48
-9 3 -15 18 -15 36 0 17 -6 33 -14 36 -7 3 -13 16 -13 30 0 14 -8 33 -17 43
-9 9 -16 22 -16 27 0 5 -13 25 -30 44 -16 19 -29 40 -30 47 0 7 -9 17 -20 23
-14 7 -19 17 -15 29 3 10 3 25 0 34 -8 19 -47 30 -56 16 -3 -6 -9 -2 -12 9 -4
18 -2 19 17 13 27 -11 577 -104 582 -99 2 3 -119 26 -269 52 -255 45 -295 53
-340 71 -15 6 -17 4 -13 -16z m43 -81 c-3 -7 -5 -2 -5 12 0 14 2 19 5 13 2 -7
2 -19 0 -25z"/>
<path d="M5234 3622 c-10 -26 -61 -49 -643 -292 l-633 -264 6 -85 c7 -100 10
-232 8 -313 l-2 -57 -52 -35 c-97 -64 -98 -66 -98 -145 0 -77 5 -85 56 -83 22
1 37 -4 43 -15 7 -14 12 -15 24 -5 14 12 18 24 33 102 9 47 15 53 87 91 445
233 633 327 639 321 4 -4 9 -325 10 -714 2 -388 0 -701 -4 -695 -4 7 -8 32 -8
56 l0 43 -390 391 -390 390 1 -584 c1 -321 5 -755 8 -965 l6 -381 222 116
c137 71 223 122 223 131 0 13 1 13 10 0 9 -13 14 -8 12 12 -1 3 5 9 14 12 8 3
12 1 9 -4 -3 -6 1 -7 9 -4 9 3 16 14 16 23 0 14 2 14 10 1 8 -12 10 -12 11 5
0 11 3 15 5 8 7 -17 34 -4 34 16 0 11 3 12 8 4 5 -8 14 -8 32 3 l25 15 -25 -6
c-18 -4 -14 0 13 15 21 11 43 18 49 14 6 -4 8 -3 5 3 -4 7 109 73 281 163 283
150 325 174 284 164 -15 -5 -39 13 -104 79 -45 46 -92 89 -102 94 -17 10 -15
12 17 24 l37 13 -2 121 -2 120 -3 -116 -4 -116 -147 -66 c-81 -35 -149 -63
-151 -61 -10 10 27 34 137 88 l119 59 7 338 c5 239 4 344 -4 358 -10 20 -29
623 -30 947 0 130 0 131 25 142 25 12 25 12 25 -43 l0 -54 70 40 c38 21 72 39
75 39 7 0 -3 -1625 -11 -1685 -2 -22 -1 -35 4 -28 4 7 63 39 130 72 l122 60 0
221 c0 140 4 220 10 220 14 0 13 213 -1 227 -15 15 -31 548 -27 879 l3 240
-104 -48 c-57 -27 -106 -46 -109 -43 -3 3 -1 5 4 5 5 0 15 4 23 9 12 8 9 21
-18 78 -18 37 -44 93 -58 123 -14 30 -31 66 -38 80 -13 25 -12 26 67 60 75 32
115 65 106 90 -2 6 -8 -2 -14 -18z m124 -584 c-1 -68 -3 -97 -5 -65 l-4 57
-94 0 c-89 0 -95 1 -95 21 0 11 4 18 9 15 5 -3 20 5 34 18 15 14 42 30 62 37
19 7 35 16 35 20 0 7 22 15 48 18 9 1 12 -29 10 -121z m-421 -120 c-3 -7 -5
-2 -5 12 0 14 2 19 5 13 2 -7 2 -19 0 -25z m-220 -1585 c-3 -10 -5 -4 -5 12 0
17 2 24 5 18 2 -7 2 -21 0 -30z m0 -90 c-3 -10 -5 -2 -5 17 0 19 2 27 5 18 2
-10 2 -26 0 -35z"/>
<path d="M833 3513 c9 -2 23 -2 30 0 6 3 -1 5 -18 5 -16 0 -22 -2 -12 -5z"/>
<path d="M893 3503 c9 -2 23 -2 30 0 6 3 -1 5 -18 5 -16 0 -22 -2 -12 -5z"/>
<path d="M4620 3500 c-8 -5 -10 -10 -5 -10 6 0 17 5 25 10 8 5 11 10 5 10 -5
0 -17 -5 -25 -10z"/>
<path d="M5820 3495 c-14 -8 -109 -53 -213 -101 -196 -91 -209 -102 -192 -153
6 -20 10 -19 91 25 46 25 88 43 93 40 4 -3 56 19 115 50 l106 55 0 -185 0
-186 -100 0 c-73 0 -100 3 -100 13 0 8 -4 7 -10 -3 -6 -9 -10 -288 -10 -738
l0 -722 128 64 127 64 2 218 c0 121 4 273 6 339 3 66 2 109 -2 95 -9 -31 -19
215 -27 724 -7 370 -6 390 11 403 25 17 7 16 -25 -2z"/>
<path d="M948 3493 c6 -2 18 -2 25 0 6 3 1 5 -13 5 -14 0 -19 -2 -12 -5z"/>
<path d="M1008 3483 c6 -2 18 -2 25 0 6 3 1 5 -13 5 -14 0 -19 -2 -12 -5z"/>
<path d="M1068 3473 c7 -3 16 -2 19 1 4 3 -2 6 -13 5 -11 0 -14 -3 -6 -6z"/>
<path d="M1128 3463 c7 -3 16 -2 19 1 4 3 -2 6 -13 5 -11 0 -14 -3 -6 -6z"/>
<path d="M4500 3450 c-8 -5 -10 -10 -5 -10 6 0 17 5 25 10 8 5 11 10 5 10 -5
0 -17 -5 -25 -10z"/>
<path d="M1238 3443 c7 -3 16 -2 19 1 4 3 -2 6 -13 5 -11 0 -14 -3 -6 -6z"/>
<path d="M4450 3430 c-8 -5 -10 -10 -5 -10 6 0 17 5 25 10 8 5 11 10 5 10 -5
0 -17 -5 -25 -10z"/>
<path d="M6262 3410 c0 -14 2 -19 5 -12 2 6 2 18 0 25 -3 6 -5 1 -5 -13z"/>
<path d="M4400 3410 c-8 -5 -10 -10 -5 -10 6 0 17 5 25 10 8 5 11 10 5 10 -5
0 -17 -5 -25 -10z"/>
<path d="M4290 3365 c-14 -8 -20 -14 -15 -14 6 0 21 6 35 14 14 8 21 14 15 14
-5 0 -21 -6 -35 -14z"/>
<path d="M4230 3340 c-8 -5 -10 -10 -5 -10 6 0 17 5 25 10 8 5 11 10 5 10 -5
0 -17 -5 -25 -10z"/>
<path d="M4180 3320 c-8 -5 -10 -10 -5 -10 6 0 17 5 25 10 8 5 11 10 5 10 -5
0 -17 -5 -25 -10z"/>
<path d="M4130 3300 c-8 -5 -10 -10 -5 -10 6 0 17 5 25 10 8 5 11 10 5 10 -5
0 -17 -5 -25 -10z"/>
<path d="M4045 3265 c-27 -13 -45 -23 -40 -24 6 0 33 11 60 24 28 13 46 23 40
24 -5 0 -32 -11 -60 -24z"/>
<path d="M3965 3230 c-3 -6 1 -7 9 -4 18 7 21 14 7 14 -6 0 -13 -4 -16 -10z"/>
<path d="M6271 3100 c-1 -41 -5 -69 -8 -62 -3 8 -34 12 -103 12 l-99 0 -4 28
c-2 15 -5 -262 -6 -615 l-1 -642 93 43 c51 23 105 49 121 57 l29 14 -2 335
c-1 352 -16 959 -20 830z"/>
<path d="M6052 3130 c0 -14 2 -19 5 -12 2 6 2 18 0 25 -3 6 -5 1 -5 -13z"/>
<path d="M486 2622 c25 -105 196 -875 199 -897 2 -16 5 -30 6 -30 2 0 5 -18
13 -65 2 -14 5 -25 6 -25 2 0 4 -9 6 -20 8 -47 13 -71 19 -95 4 -14 8 -34 9
-45 2 -11 4 -20 5 -20 1 0 4 -15 7 -34 2 -19 9 -53 16 -75 6 -23 12 -45 13
-51 1 -5 3 -12 4 -15 1 -3 4 -18 6 -34 2 -16 12 -62 21 -102 17 -71 19 -75 58
-93 23 -11 58 -23 78 -26 21 -4 36 -11 33 -15 -2 -4 7 -5 22 -2 16 3 24 1 20
-5 -4 -6 4 -8 20 -5 16 3 24 1 20 -5 -4 -6 4 -8 20 -5 16 3 24 1 20 -5 -4 -6
4 -8 20 -5 14 3 24 1 21 -4 -3 -5 14 -10 39 -10 29 -1 40 2 32 7 -11 7 -11 9
-1 9 7 0 15 -7 18 -15 4 -8 14 -15 23 -15 14 0 14 2 1 10 -8 5 -12 10 -9 10 3
0 158 -36 344 -80 186 -44 341 -80 344 -79 3 0 -9 6 -28 13 -35 12 -55 37
-216 271 -30 44 -71 103 -90 130 -59 83 -139 196 -155 220 -16 24 -104 150
-140 200 -12 17 -48 68 -80 115 -33 47 -67 96 -77 109 -22 29 -133 187 -208
296 -30 44 -71 103 -90 130 -80 112 -141 198 -150 214 -5 9 -23 33 -39 54 -23
31 -27 40 -16 47 9 6 1 11 -26 16 -21 4 -62 15 -90 25 -48 16 -51 16 -48 1z"/>
<path d="M3585 2478 c9 -54 26 -78 36 -51 4 10 8 35 8 56 1 33 -2 37 -25 37
-25 0 -25 -2 -19 -42z"/>
<path d="M5423 2115 c0 -115 3 -300 7 -410 l6 -200 1 185 c0 102 -3 286 -6
410 l-7 225 -1 -210z"/>
<path d="M5203 1380 c-35 -16 -63 -31 -63 -34 0 -5 130 51 139 60 11 10 -19 0
-76 -26z"/>
<path d="M1288 913 c7 -3 16 -2 19 1 4 3 -2 6 -13 5 -11 0 -14 -3 -6 -6z"/>
<path d="M1316 901 c-4 -5 3 -7 14 -4 23 6 26 13 6 13 -8 0 -17 -4 -20 -9z"/>
<path d="M1356 891 c-4 -5 3 -7 14 -4 23 6 26 13 6 13 -8 0 -17 -4 -20 -9z"/>
<path d="M1396 881 c-4 -5 3 -7 14 -4 23 6 26 13 6 13 -8 0 -17 -4 -20 -9z"/>
<path d="M1448 873 c7 -3 16 -2 19 1 4 3 -2 6 -13 5 -11 0 -14 -3 -6 -6z"/>
<path d="M1488 863 c7 -3 16 -2 19 1 4 3 -2 6 -13 5 -11 0 -14 -3 -6 -6z"/>
<path d="M1605 830 c-3 -6 1 -7 9 -4 18 7 21 14 7 14 -6 0 -13 -4 -16 -10z"/>
<path d="M1855 770 c-3 -6 1 -7 9 -4 18 7 21 14 7 14 -6 0 -13 -4 -16 -10z"/>
<path d="M1895 760 c-3 -6 1 -7 9 -4 18 7 21 14 7 14 -6 0 -13 -4 -16 -10z"/>
<path d="M1935 750 c-3 -6 1 -7 9 -4 18 7 21 14 7 14 -6 0 -13 -4 -16 -10z"/>
<path d="M2015 730 c-3 -6 1 -7 9 -4 18 7 21 14 7 14 -6 0 -13 -4 -16 -10z"/>
<path d="M2225 680 c-3 -6 1 -7 9 -4 18 7 21 14 7 14 -6 0 -13 -4 -16 -10z"/>
<path d="M2265 670 c-3 -6 1 -7 9 -4 18 7 21 14 7 14 -6 0 -13 -4 -16 -10z"/>
<path d="M2555 600 c-3 -6 1 -7 9 -4 18 7 21 14 7 14 -6 0 -13 -4 -16 -10z"/>
<path d="M2595 590 c-3 -6 1 -7 9 -4 18 7 21 14 7 14 -6 0 -13 -4 -16 -10z"/>
<path d="M3465 380 c-3 -6 1 -7 9 -4 18 7 21 14 7 14 -6 0 -13 -4 -16 -10z"/>
<path d="M3738 323 c7 -3 16 -2 19 1 4 3 -2 6 -13 5 -11 0 -14 -3 -6 -6z"/>
</g>
</svg>
